<svg width="157" height="36" viewBox="0 0 157 36" fill="none" xmlns="http://www.w3.org/2000/svg">
<path d="M1.92 35C1.664 35 1.44 34.904 1.248 34.712C1.056 34.52 0.96 34.296 0.96 34.04C0.96 33.784 0.976 33.608 1.008 33.512L12.912 2.456C13.168 1.752 13.68 1.4 14.448 1.4H17.712C18.48 1.4 18.992 1.752 19.248 2.456L31.104 33.512L31.2 34.04C31.2 34.296 31.104 34.52 30.912 34.712C30.72 34.904 30.496 35 30.24 35H27.792C27.44 35 27.168 34.92 26.976 34.76C26.784 34.568 26.656 34.376 26.592 34.184L23.952 27.368H8.208L5.568 34.184C5.504 34.376 5.36 34.568 5.136 34.76C4.944 34.92 4.688 35 4.368 35H1.92ZM22.56 23.24L16.08 6.2L9.6 23.24H22.56ZM37.4363 35C37.1163 35 36.8443 34.904 36.6203 34.712C36.4283 34.488 36.3323 34.216 36.3323 33.896V2.552C36.3323 2.2 36.4283 1.928 36.6203 1.736C36.8443 1.512 37.1163 1.4 37.4363 1.4H50.5883C54.0123 1.4 56.5883 2.216 58.3163 3.848C60.0443 5.48 60.9083 7.624 60.9083 10.28C60.9083 12.072 60.4923 13.56 59.6603 14.744C58.8603 15.928 57.9003 16.792 56.7803 17.336C58.1243 18.008 59.2603 19.048 60.1883 20.456C61.1163 21.864 61.5803 23.48 61.5803 25.304C61.5803 27.096 61.1643 28.728 60.3323 30.2C59.5323 31.672 58.3323 32.84 56.7323 33.704C55.1323 34.568 53.2123 35 50.9723 35H37.4363ZM49.8683 15.608C51.8843 15.608 53.4203 15.144 54.4763 14.216C55.5643 13.288 56.1083 11.992 56.1083 10.328C56.1083 8.696 55.5803 7.448 54.5243 6.584C53.4683 5.72 51.9163 5.288 49.8683 5.288H41.0363V15.608H49.8683ZM50.3483 31.112C52.3643 31.112 53.9323 30.568 55.0523 29.48C56.2043 28.392 56.7803 27 56.7803 25.304C56.7803 23.544 56.2043 22.136 55.0523 21.08C53.9323 19.992 52.3643 19.448 50.3483 19.448H41.0363V31.112H50.3483ZM80.4908 35.48C76.2988 35.48 73.0508 34.392 70.7468 32.216C68.4748 30.008 67.2748 26.696 67.1468 22.28C67.1148 21.32 67.0988 19.96 67.0988 18.2C67.0988 16.44 67.1148 15.096 67.1468 14.168C67.2748 9.848 68.5228 6.568 70.8908 4.328C73.2588 2.056 76.4588 0.919998 80.4908 0.919998C84.4908 0.919998 87.6748 2.056 90.0428 4.328C92.4108 6.568 93.6588 9.848 93.7868 14.168C93.8508 16.024 93.8828 17.368 93.8828 18.2C93.8828 19 93.8508 20.36 93.7868 22.28C93.6588 26.696 92.4428 30.008 90.1388 32.216C87.8668 34.392 84.6508 35.48 80.4908 35.48ZM80.4908 31.4C83.0188 31.4 85.0348 30.632 86.5388 29.096C88.0428 27.56 88.8588 25.208 88.9868 22.04C89.0508 20.12 89.0828 18.84 89.0828 18.2C89.0828 17.496 89.0508 16.216 88.9868 14.36C88.8588 11.192 88.0268 8.84 86.4908 7.304C84.9868 5.768 82.9868 5 80.4908 5C77.9628 5 75.9308 5.768 74.3948 7.304C72.8908 8.84 72.0748 11.192 71.9468 14.36C71.9148 15.288 71.8988 16.568 71.8988 18.2C71.8988 19.8 71.9148 21.08 71.9468 22.04C72.0748 25.208 72.8908 27.56 74.3948 29.096C75.9308 30.632 77.9628 31.4 80.4908 31.4ZM113.551 35.48C109.423 35.48 106.223 34.376 103.951 32.168C101.711 29.928 100.591 26.552 100.591 22.04V2.552C100.591 2.2 100.687 1.928 100.879 1.736C101.103 1.512 101.375 1.4 101.695 1.4H104.143C104.495 1.4 104.767 1.512 104.959 1.736C105.183 1.928 105.295 2.2 105.295 2.552V22.136C105.295 25.208 106.015 27.512 107.455 29.048C108.895 30.584 110.927 31.352 113.551 31.352C116.175 31.352 118.207 30.584 119.647 29.048C121.087 27.512 121.807 25.208 121.807 22.136V2.552C121.807 2.2 121.903 1.928 122.095 1.736C122.319 1.512 122.591 1.4 122.911 1.4H125.407C125.727 1.4 125.983 1.512 126.175 1.736C126.399 1.96 126.511 2.232 126.511 2.552V22.04C126.511 26.552 125.375 29.928 123.103 32.168C120.863 34.376 117.679 35.48 113.551 35.48ZM142.983 35C142.663 35 142.391 34.904 142.167 34.712C141.975 34.488 141.879 34.216 141.879 33.896V5.672H132.663C132.343 5.672 132.071 5.576 131.847 5.384C131.655 5.16 131.559 4.888 131.559 4.568V2.552C131.559 2.232 131.655 1.96 131.847 1.736C132.071 1.512 132.343 1.4 132.663 1.4H155.799C156.151 1.4 156.423 1.512 156.615 1.736C156.839 1.928 156.951 2.2 156.951 2.552V4.568C156.951 4.888 156.839 5.16 156.615 5.384C156.391 5.576 156.119 5.672 155.799 5.672H146.631V33.896C146.631 34.216 146.519 34.488 146.295 34.712C146.071 34.904 145.799 35 145.479 35H142.983Z" fill="#1D1B1B"/>
</svg>
