<svg width="211" height="36" viewBox="0 0 211 36" fill="none" xmlns="http://www.w3.org/2000/svg">
<path d="M14.272 35.48C9.984 35.48 6.72 34.328 4.48 32.024C2.272 29.72 1.088 26.536 0.928 22.472C0.896 21.608 0.88 20.2 0.88 18.248C0.88 16.264 0.896 14.824 0.928 13.928C1.088 9.896 2.288 6.728 4.528 4.424C6.768 2.088 10.016 0.919998 14.272 0.919998C17.12 0.919998 19.536 1.432 21.52 2.456C23.504 3.448 25.008 4.76 26.032 6.392C27.056 8.024 27.616 9.768 27.712 11.624V11.72C27.712 11.976 27.6 12.2 27.376 12.392C27.184 12.552 26.96 12.632 26.704 12.632H24.064C23.424 12.632 23.024 12.264 22.864 11.528C22.32 9.128 21.344 7.448 19.936 6.488C18.528 5.496 16.64 5 14.272 5C8.768 5 5.92 8.056 5.728 14.168C5.696 15.032 5.68 16.36 5.68 18.152C5.68 19.944 5.696 21.304 5.728 22.232C5.92 28.344 8.768 31.4 14.272 31.4C16.64 31.4 18.528 30.92 19.936 29.96C21.376 28.968 22.352 27.272 22.864 24.872C22.96 24.456 23.104 24.168 23.296 24.008C23.488 23.848 23.744 23.768 24.064 23.768H26.704C26.992 23.768 27.232 23.864 27.424 24.056C27.648 24.216 27.744 24.44 27.712 24.728C27.616 26.616 27.056 28.376 26.032 30.008C25.008 31.64 23.504 32.968 21.52 33.992C19.536 34.984 17.12 35.48 14.272 35.48ZM46.2408 35.48C42.0488 35.48 38.8008 34.392 36.4968 32.216C34.2248 30.008 33.0248 26.696 32.8968 22.28C32.8648 21.32 32.8488 19.96 32.8488 18.2C32.8488 16.44 32.8648 15.096 32.8968 14.168C33.0248 9.848 34.2728 6.568 36.6408 4.328C39.0088 2.056 42.2088 0.919998 46.2408 0.919998C50.2408 0.919998 53.4248 2.056 55.7928 4.328C58.1608 6.568 59.4088 9.848 59.5368 14.168C59.6008 16.024 59.6328 17.368 59.6328 18.2C59.6328 19 59.6008 20.36 59.5368 22.28C59.4088 26.696 58.1928 30.008 55.8888 32.216C53.6168 34.392 50.4008 35.48 46.2408 35.48ZM46.2408 31.4C48.7688 31.4 50.7848 30.632 52.2888 29.096C53.7928 27.56 54.6088 25.208 54.7368 22.04C54.8008 20.12 54.8328 18.84 54.8328 18.2C54.8328 17.496 54.8008 16.216 54.7368 14.36C54.6088 11.192 53.7768 8.84 52.2408 7.304C50.7368 5.768 48.7368 5 46.2408 5C43.7128 5 41.6808 5.768 40.1448 7.304C38.6408 8.84 37.8248 11.192 37.6968 14.36C37.6648 15.288 37.6488 16.568 37.6488 18.2C37.6488 19.8 37.6648 21.08 37.6968 22.04C37.8248 25.208 38.6408 27.56 40.1448 29.096C41.6808 30.632 43.7128 31.4 46.2408 31.4ZM67.7331 35C67.4131 35 67.1411 34.904 66.9171 34.712C66.7251 34.488 66.6291 34.216 66.6291 33.896V2.552C66.6291 2.2 66.7251 1.928 66.9171 1.736C67.1411 1.512 67.4131 1.4 67.7331 1.4H69.9411C70.5171 1.4 70.9171 1.624 71.1411 2.072L87.0771 26.552V2.552C87.0771 2.2 87.1731 1.928 87.3651 1.736C87.5891 1.512 87.8611 1.4 88.1811 1.4H90.4851C90.8371 1.4 91.1091 1.512 91.3011 1.736C91.5251 1.928 91.6371 2.2 91.6371 2.552V33.848C91.6371 34.168 91.5251 34.44 91.3011 34.664C91.1091 34.888 90.8531 35 90.5331 35H88.2291C87.7491 35 87.3651 34.776 87.0771 34.328L71.1891 10.088V33.896C71.1891 34.216 71.0771 34.488 70.8531 34.712C70.6291 34.904 70.3571 35 70.0371 35H67.7331ZM108.452 35C108.132 35 107.86 34.904 107.636 34.712C107.444 34.488 107.348 34.216 107.348 33.896V5.672H98.1321C97.8121 5.672 97.5401 5.576 97.3161 5.384C97.1241 5.16 97.0281 4.888 97.0281 4.568V2.552C97.0281 2.232 97.1241 1.96 97.3161 1.736C97.5401 1.512 97.8121 1.4 98.1321 1.4H121.268C121.62 1.4 121.892 1.512 122.084 1.736C122.308 1.928 122.42 2.2 122.42 2.552V4.568C122.42 4.888 122.308 5.16 122.084 5.384C121.86 5.576 121.588 5.672 121.268 5.672H112.1V33.896C112.1 34.216 111.988 34.488 111.764 34.712C111.54 34.904 111.268 35 110.948 35H108.452ZM121.983 35C121.727 35 121.503 34.904 121.311 34.712C121.119 34.52 121.023 34.296 121.023 34.04C121.023 33.784 121.039 33.608 121.071 33.512L132.975 2.456C133.231 1.752 133.743 1.4 134.511 1.4H137.775C138.543 1.4 139.055 1.752 139.311 2.456L151.167 33.512L151.263 34.04C151.263 34.296 151.167 34.52 150.975 34.712C150.783 34.904 150.559 35 150.303 35H147.855C147.503 35 147.231 34.92 147.039 34.76C146.847 34.568 146.719 34.376 146.655 34.184L144.015 27.368H128.271L125.631 34.184C125.567 34.376 125.423 34.568 125.199 34.76C125.007 34.92 124.751 35 124.431 35H121.983ZM142.623 23.24L136.143 6.2L129.663 23.24H142.623ZM167.881 35.48C163.593 35.48 160.329 34.328 158.089 32.024C155.881 29.72 154.697 26.536 154.537 22.472C154.505 21.608 154.489 20.2 154.489 18.248C154.489 16.264 154.505 14.824 154.537 13.928C154.697 9.896 155.897 6.728 158.137 4.424C160.377 2.088 163.625 0.919998 167.881 0.919998C170.729 0.919998 173.145 1.432 175.129 2.456C177.113 3.448 178.617 4.76 179.641 6.392C180.665 8.024 181.225 9.768 181.321 11.624V11.72C181.321 11.976 181.209 12.2 180.985 12.392C180.793 12.552 180.569 12.632 180.313 12.632H177.673C177.033 12.632 176.633 12.264 176.473 11.528C175.929 9.128 174.953 7.448 173.545 6.488C172.137 5.496 170.249 5 167.881 5C162.377 5 159.529 8.056 159.337 14.168C159.305 15.032 159.289 16.36 159.289 18.152C159.289 19.944 159.305 21.304 159.337 22.232C159.529 28.344 162.377 31.4 167.881 31.4C170.249 31.4 172.137 30.92 173.545 29.96C174.985 28.968 175.961 27.272 176.473 24.872C176.569 24.456 176.713 24.168 176.905 24.008C177.097 23.848 177.353 23.768 177.673 23.768H180.313C180.601 23.768 180.841 23.864 181.033 24.056C181.257 24.216 181.353 24.44 181.321 24.728C181.225 26.616 180.665 28.376 179.641 30.008C178.617 31.64 177.113 32.968 175.129 33.992C173.145 34.984 170.729 35.48 167.881 35.48ZM196.202 35C195.882 35 195.61 34.904 195.386 34.712C195.194 34.488 195.098 34.216 195.098 33.896V5.672H185.882C185.562 5.672 185.29 5.576 185.066 5.384C184.874 5.16 184.778 4.888 184.778 4.568V2.552C184.778 2.232 184.874 1.96 185.066 1.736C185.29 1.512 185.562 1.4 185.882 1.4H209.018C209.37 1.4 209.642 1.512 209.834 1.736C210.058 1.928 210.17 2.2 210.17 2.552V4.568C210.17 4.888 210.058 5.16 209.834 5.384C209.61 5.576 209.338 5.672 209.018 5.672H199.85V33.896C199.85 34.216 199.738 34.488 199.514 34.712C199.29 34.904 199.018 35 198.698 35H196.202Z" fill="#1D1B1B"/>
</svg>
