<svg width="594" height="258" viewBox="0 0 594 258" fill="none" xmlns="http://www.w3.org/2000/svg">
<path d="M197.281 139.234H225.688V160.469H197.281V208H171.125V160.469H77.8906V145.141L169.578 3.25H197.281V139.234ZM107.422 139.234H171.125V38.8281L168.031 44.4531L107.422 139.234ZM377.562 120.672C377.562 151.141 372.359 173.781 361.953 188.594C351.547 203.406 335.281 210.812 313.156 210.812C291.312 210.812 275.141 203.594 264.641 189.156C254.141 174.625 248.703 152.969 248.328 124.188V89.4531C248.328 59.3594 253.531 37 263.938 22.375C274.344 7.75 290.656 0.4375 312.875 0.4375C334.906 0.4375 351.125 7.51562 361.531 21.6719C371.938 35.7344 377.281 57.4844 377.562 86.9219V120.672ZM351.547 85.0938C351.547 63.0625 348.453 47.0312 342.266 37C336.078 26.875 326.281 21.8125 312.875 21.8125C299.562 21.8125 289.859 26.8281 283.766 36.8594C277.672 46.8906 274.531 62.3125 274.344 83.125V124.75C274.344 146.875 277.531 163.234 283.906 173.828C290.375 184.328 300.125 189.578 313.156 189.578C326 189.578 335.516 184.609 341.703 174.672C347.984 164.734 351.266 149.078 351.547 127.703V85.0938ZM520.719 139.234H549.125V160.469H520.719V208H494.562V160.469H401.328V145.141L493.016 3.25H520.719V139.234ZM430.859 139.234H494.562V38.8281L491.469 44.4531L430.859 139.234ZM7.49023 241.932L7.98242 245.307L8.70312 242.266L13.7656 224.406H16.6133L21.5527 242.266L22.2559 245.359L22.8008 241.914L26.7734 224.406H30.166L23.9609 250H20.8848L15.6113 231.35L15.207 229.398L14.8027 231.35L9.33594 250H6.25977L0.0722656 224.406H3.44727L7.49023 241.932ZM40.748 250.352C38.1699 250.352 36.0723 249.508 34.4551 247.82C32.8379 246.121 32.0293 243.854 32.0293 241.018V240.42C32.0293 238.533 32.3867 236.852 33.1016 235.375C33.8281 233.887 34.8359 232.727 36.125 231.895C37.4258 231.051 38.832 230.629 40.3438 230.629C42.8164 230.629 44.7383 231.443 46.1094 233.072C47.4805 234.701 48.166 237.033 48.166 240.068V241.422H35.2812C35.3281 243.297 35.873 244.814 36.916 245.975C37.9707 247.123 39.3066 247.697 40.9238 247.697C42.0723 247.697 43.0449 247.463 43.8418 246.994C44.6387 246.525 45.3359 245.904 45.9336 245.131L47.9199 246.678C46.3262 249.127 43.9355 250.352 40.748 250.352ZM40.3438 233.301C39.0312 233.301 37.9297 233.781 37.0391 234.742C36.1484 235.691 35.5977 237.027 35.3867 238.75H44.9141V238.504C44.8203 236.852 44.375 235.574 43.5781 234.672C42.7812 233.758 41.7031 233.301 40.3438 233.301ZM72.6172 250C72.4297 249.625 72.2773 248.957 72.1602 247.996C70.6484 249.566 68.8438 250.352 66.7461 250.352C64.8711 250.352 63.3301 249.824 62.123 248.77C60.9277 247.703 60.3301 246.355 60.3301 244.727C60.3301 242.746 61.0801 241.211 62.5801 240.121C64.0918 239.02 66.2129 238.469 68.9434 238.469H72.1074V236.975C72.1074 235.838 71.7676 234.936 71.0879 234.268C70.4082 233.588 69.4062 233.248 68.082 233.248C66.9219 233.248 65.9492 233.541 65.1641 234.127C64.3789 234.713 63.9863 235.422 63.9863 236.254H60.7168C60.7168 235.305 61.0508 234.391 61.7188 233.512C62.3984 232.621 63.3125 231.918 64.4609 231.402C65.6211 230.887 66.8926 230.629 68.2754 230.629C70.4668 230.629 72.1836 231.18 73.4258 232.281C74.668 233.371 75.3125 234.877 75.3594 236.799V245.553C75.3594 247.299 75.582 248.688 76.0273 249.719V250H72.6172ZM67.2207 247.521C68.2402 247.521 69.207 247.258 70.1211 246.73C71.0352 246.203 71.6973 245.518 72.1074 244.674V240.771H69.5586C65.5742 240.771 63.582 241.938 63.582 244.27C63.582 245.289 63.9219 246.086 64.6016 246.66C65.2812 247.234 66.1543 247.521 67.2207 247.521ZM96.5234 240.701C96.5234 243.596 95.8613 245.928 94.5371 247.697C93.2129 249.467 91.4199 250.352 89.1582 250.352C86.8496 250.352 85.0332 249.619 83.709 248.154V257.312H80.457V230.98H83.4277L83.5859 233.09C84.9102 231.449 86.75 230.629 89.1055 230.629C91.3906 230.629 93.1953 231.49 94.5195 233.213C95.8555 234.936 96.5234 237.332 96.5234 240.402V240.701ZM93.2715 240.332C93.2715 238.188 92.8145 236.494 91.9004 235.252C90.9863 234.01 89.7324 233.389 88.1387 233.389C86.1699 233.389 84.6934 234.262 83.709 236.008V245.096C84.6816 246.83 86.1699 247.697 88.1738 247.697C89.7324 247.697 90.9688 247.082 91.8828 245.852C92.8086 244.609 93.2715 242.77 93.2715 240.332ZM99.8105 240.314C99.8105 238.451 100.174 236.775 100.9 235.287C101.639 233.799 102.658 232.65 103.959 231.842C105.271 231.033 106.766 230.629 108.441 230.629C111.031 230.629 113.123 231.525 114.717 233.318C116.322 235.111 117.125 237.496 117.125 240.473V240.701C117.125 242.553 116.768 244.217 116.053 245.693C115.35 247.158 114.336 248.301 113.012 249.121C111.699 249.941 110.188 250.352 108.477 250.352C105.898 250.352 103.807 249.455 102.201 247.662C100.607 245.869 99.8105 243.496 99.8105 240.543V240.314ZM103.08 240.701C103.08 242.811 103.566 244.504 104.539 245.781C105.523 247.059 106.836 247.697 108.477 247.697C110.129 247.697 111.441 247.053 112.414 245.764C113.387 244.463 113.873 242.646 113.873 240.314C113.873 238.229 113.375 236.541 112.379 235.252C111.395 233.951 110.082 233.301 108.441 233.301C106.836 233.301 105.541 233.939 104.557 235.217C103.572 236.494 103.08 238.322 103.08 240.701ZM124.736 250H121.484V223H124.736V250ZM129.096 240.314C129.096 238.451 129.459 236.775 130.186 235.287C130.924 233.799 131.943 232.65 133.244 231.842C134.557 231.033 136.051 230.629 137.727 230.629C140.316 230.629 142.408 231.525 144.002 233.318C145.607 235.111 146.41 237.496 146.41 240.473V240.701C146.41 242.553 146.053 244.217 145.338 245.693C144.635 247.158 143.621 248.301 142.297 249.121C140.984 249.941 139.473 250.352 137.762 250.352C135.184 250.352 133.092 249.455 131.486 247.662C129.893 245.869 129.096 243.496 129.096 240.543V240.314ZM132.365 240.701C132.365 242.811 132.852 244.504 133.824 245.781C134.809 247.059 136.121 247.697 137.762 247.697C139.414 247.697 140.727 247.053 141.699 245.764C142.672 244.463 143.158 242.646 143.158 240.314C143.158 238.229 142.66 236.541 141.664 235.252C140.68 233.951 139.367 233.301 137.727 233.301C136.121 233.301 134.826 233.939 133.842 235.217C132.857 236.494 132.365 238.322 132.365 240.701ZM149.715 240.332C149.715 237.367 150.4 235.012 151.771 233.266C153.143 231.508 154.959 230.629 157.221 230.629C159.541 230.629 161.352 231.449 162.652 233.09L162.811 230.98H165.781V249.543C165.781 252.004 165.049 253.943 163.584 255.361C162.131 256.779 160.174 257.488 157.713 257.488C156.342 257.488 155 257.195 153.688 256.609C152.375 256.023 151.373 255.221 150.682 254.201L152.369 252.25C153.764 253.973 155.469 254.834 157.484 254.834C159.066 254.834 160.297 254.389 161.176 253.498C162.066 252.607 162.512 251.354 162.512 249.736V248.102C161.211 249.602 159.436 250.352 157.186 250.352C154.959 250.352 153.154 249.455 151.771 247.662C150.4 245.869 149.715 243.426 149.715 240.332ZM152.984 240.701C152.984 242.846 153.424 244.533 154.303 245.764C155.182 246.982 156.412 247.592 157.994 247.592C160.045 247.592 161.551 246.66 162.512 244.797V236.113C161.516 234.297 160.021 233.389 158.029 233.389C156.447 233.389 155.211 234.004 154.32 235.234C153.43 236.465 152.984 238.287 152.984 240.701ZM174.236 250H170.984V230.98H174.236V250ZM170.721 225.936C170.721 225.408 170.879 224.963 171.195 224.6C171.523 224.236 172.004 224.055 172.637 224.055C173.27 224.055 173.75 224.236 174.078 224.6C174.406 224.963 174.57 225.408 174.57 225.936C174.57 226.463 174.406 226.902 174.078 227.254C173.75 227.605 173.27 227.781 172.637 227.781C172.004 227.781 171.523 227.605 171.195 227.254C170.879 226.902 170.721 226.463 170.721 225.936ZM182.516 247.346H193.643V250H178.543V247.609L189.037 233.67H178.701V230.98H193.115V233.283L182.516 247.346ZM204.928 250.352C202.35 250.352 200.252 249.508 198.635 247.82C197.018 246.121 196.209 243.854 196.209 241.018V240.42C196.209 238.533 196.566 236.852 197.281 235.375C198.008 233.887 199.016 232.727 200.305 231.895C201.605 231.051 203.012 230.629 204.523 230.629C206.996 230.629 208.918 231.443 210.289 233.072C211.66 234.701 212.346 237.033 212.346 240.068V241.422H199.461C199.508 243.297 200.053 244.814 201.096 245.975C202.15 247.123 203.486 247.697 205.104 247.697C206.252 247.697 207.225 247.463 208.021 246.994C208.818 246.525 209.516 245.904 210.113 245.131L212.1 246.678C210.506 249.127 208.115 250.352 204.928 250.352ZM204.523 233.301C203.211 233.301 202.109 233.781 201.219 234.742C200.328 235.691 199.777 237.027 199.566 238.75H209.094V238.504C209 236.852 208.555 235.574 207.758 234.672C206.961 233.758 205.883 233.301 204.523 233.301ZM215.334 240.332C215.334 237.414 216.025 235.07 217.408 233.301C218.791 231.52 220.602 230.629 222.84 230.629C225.066 230.629 226.83 231.391 228.131 232.914V223H231.383V250H228.395L228.236 247.961C226.936 249.555 225.125 250.352 222.805 250.352C220.602 250.352 218.803 249.449 217.408 247.645C216.025 245.84 215.334 243.484 215.334 240.578V240.332ZM218.586 240.701C218.586 242.857 219.031 244.545 219.922 245.764C220.812 246.982 222.043 247.592 223.613 247.592C225.676 247.592 227.182 246.666 228.131 244.814V236.078C227.158 234.285 225.664 233.389 223.648 233.389C222.055 233.389 220.812 234.004 219.922 235.234C219.031 236.465 218.586 238.287 218.586 240.701ZM246.975 250V233.494H243.969V230.98H246.975V229.029C246.975 226.99 247.52 225.414 248.609 224.301C249.699 223.188 251.24 222.631 253.232 222.631C253.982 222.631 254.727 222.73 255.465 222.93L255.289 225.566C254.738 225.461 254.152 225.408 253.531 225.408C252.477 225.408 251.662 225.719 251.088 226.34C250.514 226.949 250.227 227.828 250.227 228.977V230.98H254.287V233.494H250.227V250H246.975ZM257.029 240.314C257.029 238.451 257.393 236.775 258.119 235.287C258.857 233.799 259.877 232.65 261.178 231.842C262.49 231.033 263.984 230.629 265.66 230.629C268.25 230.629 270.342 231.525 271.936 233.318C273.541 235.111 274.344 237.496 274.344 240.473V240.701C274.344 242.553 273.986 244.217 273.271 245.693C272.568 247.158 271.555 248.301 270.23 249.121C268.918 249.941 267.406 250.352 265.695 250.352C263.117 250.352 261.025 249.455 259.42 247.662C257.826 245.869 257.029 243.496 257.029 240.543V240.314ZM260.299 240.701C260.299 242.811 260.785 244.504 261.758 245.781C262.742 247.059 264.055 247.697 265.695 247.697C267.348 247.697 268.66 247.053 269.633 245.764C270.605 244.463 271.092 242.646 271.092 240.314C271.092 238.229 270.594 236.541 269.598 235.252C268.613 233.951 267.301 233.301 265.66 233.301C264.055 233.301 262.76 233.939 261.775 235.217C260.791 236.494 260.299 238.322 260.299 240.701ZM287.615 233.898C287.123 233.816 286.59 233.775 286.016 233.775C283.883 233.775 282.436 234.684 281.674 236.5V250H278.422V230.98H281.586L281.639 233.178C282.705 231.479 284.217 230.629 286.174 230.629C286.807 230.629 287.287 230.711 287.615 230.875V233.898ZM303.963 226.375V230.98H307.514V233.494H303.963V245.289C303.963 246.051 304.121 246.625 304.438 247.012C304.754 247.387 305.293 247.574 306.055 247.574C306.43 247.574 306.945 247.504 307.602 247.363V250C306.746 250.234 305.914 250.352 305.105 250.352C303.652 250.352 302.557 249.912 301.818 249.033C301.08 248.154 300.711 246.906 300.711 245.289V233.494H297.248V230.98H300.711V226.375H303.963ZM314.58 233.283C316.021 231.514 317.896 230.629 320.205 230.629C324.225 230.629 326.252 232.896 326.287 237.432V250H323.035V237.414C323.023 236.043 322.707 235.029 322.086 234.373C321.477 233.717 320.521 233.389 319.221 233.389C318.166 233.389 317.24 233.67 316.443 234.232C315.646 234.795 315.025 235.533 314.58 236.447V250H311.328V223H314.58V233.283ZM339.049 250.352C336.471 250.352 334.373 249.508 332.756 247.82C331.139 246.121 330.33 243.854 330.33 241.018V240.42C330.33 238.533 330.688 236.852 331.402 235.375C332.129 233.887 333.137 232.727 334.426 231.895C335.727 231.051 337.133 230.629 338.645 230.629C341.117 230.629 343.039 231.443 344.41 233.072C345.781 234.701 346.467 237.033 346.467 240.068V241.422H333.582C333.629 243.297 334.174 244.814 335.217 245.975C336.271 247.123 337.607 247.697 339.225 247.697C340.373 247.697 341.346 247.463 342.143 246.994C342.939 246.525 343.637 245.904 344.234 245.131L346.221 246.678C344.627 249.127 342.236 250.352 339.049 250.352ZM338.645 233.301C337.332 233.301 336.23 233.781 335.34 234.742C334.449 235.691 333.898 237.027 333.688 238.75H343.215V238.504C343.121 236.852 342.676 235.574 341.879 234.672C341.082 233.758 340.004 233.301 338.645 233.301ZM362.709 250H359.457V230.98H362.709V250ZM359.193 225.936C359.193 225.408 359.352 224.963 359.668 224.6C359.996 224.236 360.477 224.055 361.109 224.055C361.742 224.055 362.223 224.236 362.551 224.6C362.879 224.963 363.043 225.408 363.043 225.936C363.043 226.463 362.879 226.902 362.551 227.254C362.223 227.605 361.742 227.781 361.109 227.781C360.477 227.781 359.996 227.605 359.668 227.254C359.352 226.902 359.193 226.463 359.193 225.936ZM371.006 230.98L371.111 233.371C372.564 231.543 374.463 230.629 376.807 230.629C380.826 230.629 382.854 232.896 382.889 237.432V250H379.637V237.414C379.625 236.043 379.309 235.029 378.688 234.373C378.078 233.717 377.123 233.389 375.822 233.389C374.768 233.389 373.842 233.67 373.045 234.232C372.248 234.795 371.627 235.533 371.182 236.447V250H367.93V230.98H371.006ZM395.422 247.697C396.582 247.697 397.596 247.346 398.463 246.643C399.33 245.939 399.811 245.061 399.904 244.006H402.98C402.922 245.096 402.547 246.133 401.855 247.117C401.164 248.102 400.238 248.887 399.078 249.473C397.93 250.059 396.711 250.352 395.422 250.352C392.832 250.352 390.77 249.49 389.234 247.768C387.711 246.033 386.949 243.666 386.949 240.666V240.121C386.949 238.27 387.289 236.623 387.969 235.182C388.648 233.74 389.621 232.621 390.887 231.824C392.164 231.027 393.67 230.629 395.404 230.629C397.537 230.629 399.307 231.268 400.713 232.545C402.131 233.822 402.887 235.48 402.98 237.52H399.904C399.811 236.289 399.342 235.281 398.498 234.496C397.666 233.699 396.635 233.301 395.404 233.301C393.752 233.301 392.469 233.898 391.555 235.094C390.652 236.277 390.201 237.994 390.201 240.244V240.859C390.201 243.051 390.652 244.738 391.555 245.922C392.457 247.105 393.746 247.697 395.422 247.697ZM405.775 240.314C405.775 238.451 406.139 236.775 406.865 235.287C407.604 233.799 408.623 232.65 409.924 231.842C411.236 231.033 412.73 230.629 414.406 230.629C416.996 230.629 419.088 231.525 420.682 233.318C422.287 235.111 423.09 237.496 423.09 240.473V240.701C423.09 242.553 422.732 244.217 422.018 245.693C421.314 247.158 420.301 248.301 418.977 249.121C417.664 249.941 416.152 250.352 414.441 250.352C411.863 250.352 409.771 249.455 408.166 247.662C406.572 245.869 405.775 243.496 405.775 240.543V240.314ZM409.045 240.701C409.045 242.811 409.531 244.504 410.504 245.781C411.488 247.059 412.801 247.697 414.441 247.697C416.094 247.697 417.406 247.053 418.379 245.764C419.352 244.463 419.838 242.646 419.838 240.314C419.838 238.229 419.34 236.541 418.344 235.252C417.359 233.951 416.047 233.301 414.406 233.301C412.801 233.301 411.506 233.939 410.521 235.217C409.537 236.494 409.045 238.322 409.045 240.701ZM430.244 230.98L430.35 233.371C431.803 231.543 433.701 230.629 436.045 230.629C440.064 230.629 442.092 232.896 442.127 237.432V250H438.875V237.414C438.863 236.043 438.547 235.029 437.926 234.373C437.316 233.717 436.361 233.389 435.061 233.389C434.006 233.389 433.08 233.67 432.283 234.232C431.486 234.795 430.865 235.533 430.42 236.447V250H427.168V230.98H430.244ZM453.307 245.588L458.018 230.98H461.34L454.52 250H452.041L445.15 230.98H448.473L453.307 245.588ZM472.115 250.352C469.537 250.352 467.439 249.508 465.822 247.82C464.205 246.121 463.396 243.854 463.396 241.018V240.42C463.396 238.533 463.754 236.852 464.469 235.375C465.195 233.887 466.203 232.727 467.492 231.895C468.793 231.051 470.199 230.629 471.711 230.629C474.184 230.629 476.105 231.443 477.477 233.072C478.848 234.701 479.533 237.033 479.533 240.068V241.422H466.648C466.695 243.297 467.24 244.814 468.283 245.975C469.338 247.123 470.674 247.697 472.291 247.697C473.439 247.697 474.412 247.463 475.209 246.994C476.006 246.525 476.703 245.904 477.301 245.131L479.287 246.678C477.693 249.127 475.303 250.352 472.115 250.352ZM471.711 233.301C470.398 233.301 469.297 233.781 468.406 234.742C467.516 235.691 466.965 237.027 466.754 238.75H476.281V238.504C476.188 236.852 475.742 235.574 474.945 234.672C474.148 233.758 473.07 233.301 471.711 233.301ZM486.389 230.98L486.494 233.371C487.947 231.543 489.846 230.629 492.189 230.629C496.209 230.629 498.236 232.896 498.271 237.432V250H495.02V237.414C495.008 236.043 494.691 235.029 494.07 234.373C493.461 233.717 492.506 233.389 491.205 233.389C490.15 233.389 489.225 233.67 488.428 234.232C487.631 234.795 487.01 235.533 486.564 236.447V250H483.312V230.98H486.389ZM506.709 250H503.457V230.98H506.709V250ZM503.193 225.936C503.193 225.408 503.352 224.963 503.668 224.6C503.996 224.236 504.477 224.055 505.109 224.055C505.742 224.055 506.223 224.236 506.551 224.6C506.879 224.963 507.043 225.408 507.043 225.936C507.043 226.463 506.879 226.902 506.551 227.254C506.223 227.605 505.742 227.781 505.109 227.781C504.477 227.781 503.996 227.605 503.668 227.254C503.352 226.902 503.193 226.463 503.193 225.936ZM519.822 250.352C517.244 250.352 515.146 249.508 513.529 247.82C511.912 246.121 511.104 243.854 511.104 241.018V240.42C511.104 238.533 511.461 236.852 512.176 235.375C512.902 233.887 513.91 232.727 515.199 231.895C516.5 231.051 517.906 230.629 519.418 230.629C521.891 230.629 523.812 231.443 525.184 233.072C526.555 234.701 527.24 237.033 527.24 240.068V241.422H514.355C514.402 243.297 514.947 244.814 515.99 245.975C517.045 247.123 518.381 247.697 519.998 247.697C521.146 247.697 522.119 247.463 522.916 246.994C523.713 246.525 524.41 245.904 525.008 245.131L526.994 246.678C525.4 249.127 523.01 250.352 519.822 250.352ZM519.418 233.301C518.105 233.301 517.004 233.781 516.113 234.742C515.223 235.691 514.672 237.027 514.461 238.75H523.988V238.504C523.895 236.852 523.449 235.574 522.652 234.672C521.855 233.758 520.777 233.301 519.418 233.301ZM534.096 230.98L534.201 233.371C535.654 231.543 537.553 230.629 539.896 230.629C543.916 230.629 545.943 232.896 545.979 237.432V250H542.727V237.414C542.715 236.043 542.398 235.029 541.777 234.373C541.168 233.717 540.213 233.389 538.912 233.389C537.857 233.389 536.932 233.67 536.135 234.232C535.338 234.795 534.717 235.533 534.271 236.447V250H531.02V230.98H534.096ZM558.512 247.697C559.672 247.697 560.686 247.346 561.553 246.643C562.42 245.939 562.9 245.061 562.994 244.006H566.07C566.012 245.096 565.637 246.133 564.945 247.117C564.254 248.102 563.328 248.887 562.168 249.473C561.02 250.059 559.801 250.352 558.512 250.352C555.922 250.352 553.859 249.49 552.324 247.768C550.801 246.033 550.039 243.666 550.039 240.666V240.121C550.039 238.27 550.379 236.623 551.059 235.182C551.738 233.74 552.711 232.621 553.977 231.824C555.254 231.027 556.76 230.629 558.494 230.629C560.627 230.629 562.396 231.268 563.803 232.545C565.221 233.822 565.977 235.48 566.07 237.52H562.994C562.9 236.289 562.432 235.281 561.588 234.496C560.756 233.699 559.725 233.301 558.494 233.301C556.842 233.301 555.559 233.898 554.645 235.094C553.742 236.277 553.291 237.994 553.291 240.244V240.859C553.291 243.051 553.742 244.738 554.645 245.922C555.547 247.105 556.836 247.697 558.512 247.697ZM577.619 250.352C575.041 250.352 572.943 249.508 571.326 247.82C569.709 246.121 568.9 243.854 568.9 241.018V240.42C568.9 238.533 569.258 236.852 569.973 235.375C570.699 233.887 571.707 232.727 572.996 231.895C574.297 231.051 575.703 230.629 577.215 230.629C579.688 230.629 581.609 231.443 582.98 233.072C584.352 234.701 585.037 237.033 585.037 240.068V241.422H572.152C572.199 243.297 572.744 244.814 573.787 245.975C574.842 247.123 576.178 247.697 577.795 247.697C578.943 247.697 579.916 247.463 580.713 246.994C581.51 246.525 582.207 245.904 582.805 245.131L584.791 246.678C583.197 249.127 580.807 250.352 577.619 250.352ZM577.215 233.301C575.902 233.301 574.801 233.781 573.91 234.742C573.02 235.691 572.469 237.027 572.258 238.75H581.785V238.504C581.691 236.852 581.246 235.574 580.449 234.672C579.652 233.758 578.574 233.301 577.215 233.301ZM592.455 242.775H589.52L589.291 224.406H592.701L592.455 242.775ZM589.168 248.365C589.168 247.838 589.326 247.398 589.643 247.047C589.971 246.684 590.451 246.502 591.084 246.502C591.717 246.502 592.197 246.684 592.525 247.047C592.854 247.398 593.018 247.838 593.018 248.365C593.018 248.893 592.854 249.332 592.525 249.684C592.197 250.023 591.717 250.193 591.084 250.193C590.451 250.193 589.971 250.023 589.643 249.684C589.326 249.332 589.168 248.893 589.168 248.365Z" fill="#FFF9F9"/>
</svg>
