<svg width="128" height="36" viewBox="0 0 128 36" fill="none" xmlns="http://www.w3.org/2000/svg">
<path d="M1.28 35C0.96 35 0.688 34.904 0.464 34.712C0.272 34.488 0.176 34.216 0.176 33.896V2.552C0.176 2.2 0.272 1.928 0.464 1.736C0.688 1.512 0.96 1.4 1.28 1.4H3.728C4.08 1.4 4.352 1.512 4.544 1.736C4.768 1.928 4.88 2.2 4.88 2.552V15.8H21.392V2.552C21.392 2.2 21.488 1.928 21.68 1.736C21.904 1.512 22.176 1.4 22.496 1.4H24.944C25.296 1.4 25.568 1.512 25.76 1.736C25.984 1.928 26.096 2.2 26.096 2.552V33.896C26.096 34.216 25.984 34.488 25.76 34.712C25.536 34.904 25.264 35 24.944 35H22.496C22.176 35 21.904 34.904 21.68 34.712C21.488 34.488 21.392 34.216 21.392 33.896V20.12H4.88V33.896C4.88 34.216 4.768 34.488 4.544 34.712C4.32 34.904 4.048 35 3.728 35H1.28ZM46.5376 35.48C42.3456 35.48 39.0976 34.392 36.7936 32.216C34.5216 30.008 33.3216 26.696 33.1936 22.28C33.1616 21.32 33.1456 19.96 33.1456 18.2C33.1456 16.44 33.1616 15.096 33.1936 14.168C33.3216 9.848 34.5696 6.568 36.9376 4.328C39.3056 2.056 42.5056 0.919998 46.5376 0.919998C50.5376 0.919998 53.7216 2.056 56.0896 4.328C58.4576 6.568 59.7056 9.848 59.8336 14.168C59.8976 16.024 59.9296 17.368 59.9296 18.2C59.9296 19 59.8976 20.36 59.8336 22.28C59.7056 26.696 58.4896 30.008 56.1856 32.216C53.9136 34.392 50.6976 35.48 46.5376 35.48ZM46.5376 31.4C49.0656 31.4 51.0816 30.632 52.5856 29.096C54.0896 27.56 54.9056 25.208 55.0336 22.04C55.0976 20.12 55.1296 18.84 55.1296 18.2C55.1296 17.496 55.0976 16.216 55.0336 14.36C54.9056 11.192 54.0736 8.84 52.5376 7.304C51.0336 5.768 49.0336 5 46.5376 5C44.0096 5 41.9776 5.768 40.4416 7.304C38.9376 8.84 38.1216 11.192 37.9936 14.36C37.9616 15.288 37.9456 16.568 37.9456 18.2C37.9456 19.8 37.9616 21.08 37.9936 22.04C38.1216 25.208 38.9376 27.56 40.4416 29.096C41.9776 30.632 44.0096 31.4 46.5376 31.4ZM68.03 35C67.71 35 67.438 34.904 67.214 34.712C67.022 34.488 66.926 34.216 66.926 33.896V2.552C66.926 2.2 67.022 1.928 67.214 1.736C67.438 1.512 67.71 1.4 68.03 1.4H70.43C70.942 1.4 71.358 1.656 71.678 2.168L81.806 21.56L92.03 2.168C92.094 1.976 92.222 1.8 92.414 1.64C92.638 1.48 92.91 1.4 93.23 1.4H95.582C95.934 1.4 96.206 1.512 96.398 1.736C96.622 1.928 96.734 2.2 96.734 2.552V33.896C96.734 34.216 96.622 34.488 96.398 34.712C96.174 34.904 95.902 35 95.582 35H93.23C92.91 35 92.638 34.904 92.414 34.712C92.222 34.488 92.126 34.216 92.126 33.896V10.28L84.11 25.928C83.79 26.6 83.278 26.936 82.574 26.936H81.086C80.382 26.936 79.87 26.6 79.55 25.928L71.486 10.28V33.896C71.486 34.216 71.374 34.488 71.15 34.712C70.958 34.904 70.702 35 70.382 35H68.03ZM106.139 35C105.819 35 105.547 34.904 105.323 34.712C105.131 34.488 105.035 34.216 105.035 33.896V2.552C105.035 2.2 105.131 1.928 105.323 1.736C105.547 1.512 105.819 1.4 106.139 1.4H125.963C126.283 1.4 126.539 1.512 126.731 1.736C126.955 1.928 127.067 2.2 127.067 2.552V4.376C127.067 4.696 126.971 4.968 126.779 5.192C126.587 5.384 126.315 5.48 125.963 5.48H109.643V15.992H124.907C125.227 15.992 125.483 16.104 125.675 16.328C125.899 16.52 126.011 16.792 126.011 17.144V18.92C126.011 19.24 125.899 19.512 125.675 19.736C125.483 19.928 125.227 20.024 124.907 20.024H109.643V30.92H126.347C126.699 30.92 126.971 31.016 127.163 31.208C127.355 31.4 127.451 31.672 127.451 32.024V33.896C127.451 34.216 127.339 34.488 127.115 34.712C126.923 34.904 126.667 35 126.347 35H106.139Z" fill="#1D1B1B"/>
</svg>
