<svg width="104" height="29" viewBox="0 0 104 29" fill="none" xmlns="http://www.w3.org/2000/svg">
<rect y="2" width="101" height="27" fill="white"/>
<rect x="5" y="3" width="31" height="21" fill="#603912"/>
<path d="M14.6875 14.4277H8.52539V19.4668H15.6836V21H6.65039V6.78125H15.5859V8.32422H8.52539V12.8945H14.6875V14.4277ZM19.9023 19.4668H26.6406V21H18.0176V6.78125H19.9023V19.4668ZM30.791 21H28.916V6.78125H30.791V21Z" fill="#5DEAD0"/>
<path d="M41.9141 18.6465H49.082V21H38.252V19.2812L45.2832 9.1543H38.2617V6.78125H48.9258V8.46094L41.9141 18.6465ZM59.1016 18.0703H53.9648L52.9883 21H49.873L55.166 6.78125H57.8809L63.2031 21H60.0879L59.1016 18.0703ZM54.7559 15.6973H58.3105L56.5234 10.375L54.7559 15.6973ZM69.7949 15.7949H67.4609V21H64.5312V6.78125H69.8145C71.4941 6.78125 72.7897 7.1556 73.7012 7.9043C74.6126 8.65299 75.0684 9.71094 75.0684 11.0781C75.0684 12.0482 74.8568 12.8587 74.4336 13.5098C74.0169 14.1543 73.3822 14.6686 72.5293 15.0527L75.6055 20.8633V21H72.4609L69.7949 15.7949ZM67.4609 13.4219H69.8242C70.5599 13.4219 71.1296 13.2363 71.5332 12.8652C71.9368 12.4876 72.1387 11.9701 72.1387 11.3125C72.1387 10.6419 71.9466 10.1146 71.5625 9.73047C71.1849 9.34635 70.6022 9.1543 69.8145 9.1543H67.4609V13.4219ZM77.3047 21V6.78125H81.6797C82.9297 6.78125 84.0462 7.06445 85.0293 7.63086C86.0189 8.19076 86.7904 8.99154 87.3438 10.0332C87.8971 11.0684 88.1738 12.2467 88.1738 13.5684V14.2227C88.1738 15.5443 87.9004 16.7194 87.3535 17.748C86.8132 18.7767 86.0482 19.5742 85.0586 20.1406C84.069 20.707 82.9525 20.9935 81.709 21H77.3047ZM80.2344 9.1543V18.6465H81.6504C82.7962 18.6465 83.6719 18.2721 84.2773 17.5234C84.8828 16.7747 85.1921 15.7038 85.2051 14.3105V13.5586C85.2051 12.1133 84.9056 11.0195 84.3066 10.2773C83.7077 9.52865 82.832 9.1543 81.6797 9.1543H80.2344ZM98.8672 14.8379H93.2422V18.6465H99.8438V21H90.3125V6.78125H99.8242V9.1543H93.2422V12.543H98.8672V14.8379Z" fill="#603912"/>
<rect x="3.5" y="1.5" width="99" height="24" stroke="#5EEAD1" stroke-width="3"/>
</svg>

