<svg width="63" height="63" viewBox="0 0 63 63" fill="none" xmlns="http://www.w3.org/2000/svg">
<path fill-rule="evenodd" clip-rule="evenodd" d="M44.8378 9.13183C44.4645 8.72487 43.8334 8.69926 43.4283 9.07463L42.3038 10.1165L42.2964 10.1085L38.8624 13.2903L44.7334 19.6895L46.33 18.2102C46.3704 18.1825 46.4093 18.1516 46.4464 18.1172L49.2993 15.4738C49.7044 15.0984 49.7301 14.4642 49.3568 14.0573L44.8378 9.13183Z" fill="#B73225"/>
<path fill-rule="evenodd" clip-rule="evenodd" d="M37.4479 14L14.136 36.4329L14.1407 36.4381C14.0232 36.5756 13.9391 36.7507 13.9081 36.957L13.0435 42.7015C12.9452 43.3546 13.4637 43.9286 14.0987 43.8699L19.6844 43.353C19.8704 43.3357 20.0336 43.2696 20.168 43.1704L20.1853 43.1897L43.4972 20.7568L37.4479 14Z" fill="#B73225"/>
<rect x="2.5" y="2.5" width="58" height="58" rx="7.5" stroke="#B73225" stroke-width="5"/>
<rect x="11" y="46" width="42" height="8" rx="4" fill="#B73225"/>
</svg>
