<svg width="538" height="369" viewBox="0 0 538 369" fill="none" xmlns="http://www.w3.org/2000/svg">
<mask id="path-1-inside-1" fill="white">
<rect x="65" width="423" height="324" rx="3"/>
</mask>
<rect x="65" width="423" height="324" rx="3" fill="#FFFCFC" stroke="#383737" stroke-width="30" mask="url(#path-1-inside-1)"/>
<g clip-path="url(#clip0)">
<g filter="url(#filter0_d)">
<path d="M409.725 22.6866H170.905H150.632C147.871 22.6866 145.637 24.9191 145.637 27.6805V47.9801V281.333V301.633C145.637 304.395 147.872 306.627 150.634 306.627H170.905H409.725H429.998C432.759 306.627 434.993 304.394 434.993 301.633V281.333V47.9801V27.682C434.993 24.9205 432.76 22.6866 429.999 22.6866H409.725Z" fill="white"/>
</g>
<path d="M145.637 250.328C158.692 250.328 169.275 239.735 169.275 226.667C169.275 213.599 158.692 203.005 145.637 203.005C132.583 203.005 122 213.599 122 226.667C122 239.735 132.583 250.328 145.637 250.328Z" fill="white"/>
<path d="M145.637 248.697C157.792 248.697 167.645 238.833 167.645 226.667C167.645 214.5 157.792 204.637 145.637 204.637C133.483 204.637 123.63 214.5 123.63 226.667C123.63 238.833 133.483 248.697 145.637 248.697Z" stroke="#D5D5D5" stroke-width="4"/>
<path d="M136.795 226.543L142.772 232.527L150.635 224.655L154.481 220.805" stroke="white" stroke-width="6"/>
<path d="M391.386 208.716H210.437C207.511 208.716 205.139 211.091 205.139 214.02C205.139 216.949 207.511 219.323 210.437 219.323H391.386C394.312 219.323 396.684 216.949 396.684 214.02C396.684 211.091 394.312 208.716 391.386 208.716Z" fill="#B2DDCC"/>
<path d="M245.485 228.298H210.437C207.511 228.298 205.139 230.673 205.139 233.602C205.139 236.531 207.511 238.905 210.437 238.905H245.485C248.411 238.905 250.783 236.531 250.783 233.602C250.783 230.673 248.411 228.298 245.485 228.298Z" fill="#B2DDCC"/>
<path d="M396.684 233.602C396.684 230.673 394.312 228.298 391.386 228.298C388.46 228.298 386.088 230.673 386.088 233.602C386.088 236.531 388.46 238.905 391.386 238.905C394.312 238.905 396.684 236.531 396.684 233.602Z" fill="#B2DDCC"/>
<path d="M382.012 233.602C382.012 230.673 379.64 228.298 376.714 228.298C373.788 228.298 371.416 230.673 371.416 233.602C371.416 236.531 373.788 238.905 376.714 238.905C379.64 238.905 382.012 236.531 382.012 233.602Z" fill="#B2DDCC"/>
<path d="M145.637 186.687C158.692 186.687 169.275 176.093 169.275 163.025C169.275 149.957 158.692 139.363 145.637 139.363C132.583 139.363 122 149.957 122 163.025C122 176.093 132.583 186.687 145.637 186.687Z" fill="white"/>
<path d="M145.637 185.055C157.792 185.055 167.645 175.192 167.645 163.025C167.645 150.858 157.792 140.995 145.637 140.995C133.483 140.995 123.63 150.858 123.63 163.025C123.63 175.192 133.483 185.055 145.637 185.055Z" stroke="#D5D5D5" stroke-width="4"/>
<path d="M136.795 162.902L142.772 168.885L150.635 161.013L154.481 157.163" stroke="white" stroke-width="6"/>
<path d="M391.386 145.075H210.437C207.511 145.075 205.139 147.449 205.139 150.378C205.139 153.307 207.511 155.682 210.437 155.682H391.386C394.312 155.682 396.684 153.307 396.684 150.378C396.684 147.449 394.312 145.075 391.386 145.075Z" fill="#FFDF6C"/>
<path d="M210.437 165.157H245.485C248.135 165.157 250.283 167.307 250.283 169.96C250.283 172.614 248.135 174.764 245.485 174.764H210.437C207.787 174.764 205.639 172.614 205.639 169.96C205.639 167.307 207.787 165.157 210.437 165.157Z" fill="#FFDF6C" stroke="black"/>
<path d="M391.386 165.157C394.035 165.157 396.184 167.307 396.184 169.96C396.184 172.614 394.035 174.764 391.386 174.764C388.736 174.764 386.588 172.614 386.588 169.96C386.588 167.307 388.736 165.157 391.386 165.157Z" fill="#FFDF6C" stroke="black"/>
<path d="M382.012 169.96C382.012 167.031 379.64 164.657 376.714 164.657C373.788 164.657 371.416 167.031 371.416 169.96C371.416 172.889 373.788 175.264 376.714 175.264C379.64 175.264 382.012 172.889 382.012 169.96Z" fill="#FFDF6C"/>
<path d="M145.637 123.045C158.692 123.045 169.275 112.451 169.275 99.3831C169.275 86.3151 158.692 75.7214 145.637 75.7214C132.583 75.7214 122 86.3151 122 99.3831C122 112.451 132.583 123.045 145.637 123.045Z" fill="#B73225"/>
<path d="M136.795 99.2599L142.772 105.243L150.635 97.371L154.481 93.5215" stroke="white" stroke-width="6"/>
<path d="M391.386 81.4328H210.437C207.511 81.4328 205.139 83.8073 205.139 86.7363C205.139 89.6654 207.511 92.0398 210.437 92.0398H391.386C394.312 92.0398 396.684 89.6654 396.684 86.7363C396.684 83.8073 394.312 81.4328 391.386 81.4328Z" fill="#707070"/>
<path d="M245.485 101.015H210.437C207.511 101.015 205.139 103.389 205.139 106.318C205.139 109.247 207.511 111.622 210.437 111.622H245.485C248.411 111.622 250.783 109.247 250.783 106.318C250.783 103.389 248.411 101.015 245.485 101.015Z" fill="#707070"/>
<path d="M396.684 106.318C396.684 103.389 394.312 101.015 391.386 101.015C388.46 101.015 386.088 103.389 386.088 106.318C386.088 109.247 388.46 111.622 391.386 111.622C394.312 111.622 396.684 109.247 396.684 106.318Z" fill="#707070"/>
<path d="M382.012 106.318C382.012 103.389 379.64 101.015 376.714 101.015C373.788 101.015 371.416 103.389 371.416 106.318C371.416 109.247 373.788 111.622 376.714 111.622C379.64 111.622 382.012 109.247 382.012 106.318Z" fill="#707070"/>
<path d="M393 73.5139C344.029 97.0964 317.592 111.807 273.5 142.514C229.682 110.448 203.539 95.2996 154 73.5139C211.419 125.929 239.04 157.724 273.5 231.014C306.631 158.142 335.471 126.29 393 73.5139Z" fill="#C23C3C"/>
<path d="M274.559 33.5L390 70.0139C390 70.0139 348.041 86.351 325.5 98.5139C302.959 110.677 274.559 132.304 274.559 132.304C274.559 132.304 239.443 107.86 216 95.0139C192.557 82.1676 154.5 66.5139 154.5 66.5139L274.559 33.5Z" fill="#C23C3C"/>
<rect x="280.752" y="71" width="60" height="5" rx="2.5" transform="rotate(20.5076 280.752 71)" fill="#FFDF6C"/>
<rect x="331" y="92" width="5" height="26" rx="2.5" fill="#FFDF6C"/>
<rect x="327" y="120" width="13" height="13" rx="1" fill="#FFDF6C"/>
<path d="M332.648 111.39C333.038 110.753 333.962 110.753 334.352 111.39L339.927 120.477C340.336 121.143 339.856 122 339.075 122H327.925C327.144 122 326.664 121.143 327.073 120.477L332.648 111.39Z" fill="#FFDF6C"/>
</g>
<path fill-rule="evenodd" clip-rule="evenodd" d="M16 336H523V336.061L532.068 336.025C535.716 336.011 538.151 339.782 536.636 343.101L526.209 365.943C525.547 367.394 524.342 368.319 523 368.686V369H16V368.857C14.0533 368.979 12.0555 367.98 11.1256 365.943L0.699057 343.101C-0.815958 339.782 1.61886 336.011 5.26717 336.025L16 336.067V336Z" fill="#383737"/>
<defs>
<filter id="filter0_d" x="127.637" y="13.6866" width="325.355" height="319.94" filterUnits="userSpaceOnUse" color-interpolation-filters="sRGB">
<feFlood flood-opacity="0" result="BackgroundImageFix"/>
<feColorMatrix in="SourceAlpha" type="matrix" values="0 0 0 0 0 0 0 0 0 0 0 0 0 0 0 0 0 0 127 0" result="hardAlpha"/>
<feOffset dy="9"/>
<feGaussianBlur stdDeviation="9"/>
<feColorMatrix type="matrix" values="0 0 0 0 0 0 0 0 0 0 0 0 0 0 0 0 0 0 0.09 0"/>
<feBlend mode="normal" in2="BackgroundImageFix" result="effect1_dropShadow"/>
<feBlend mode="normal" in="SourceGraphic" in2="effect1_dropShadow" result="shape"/>
</filter>
<clipPath id="clip0">
<rect width="335" height="328" fill="white" transform="translate(122 8)"/>
</clipPath>
</defs>
</svg>
