<svg width="33" height="33" viewBox="0 0 33 33" fill="none" xmlns="http://www.w3.org/2000/svg">
<path fill-rule="evenodd" clip-rule="evenodd" d="M4.125 6.875V26.125C4.125 27.6375 5.34875 28.875 6.875 28.875H26.125C27.6375 28.875 28.875 27.6375 28.875 26.125V6.875C28.875 5.3625 27.6375 4.125 26.125 4.125H6.875C5.34875 4.125 4.125 5.3625 4.125 6.875ZM20.625 12.375C20.625 14.6575 18.7825 16.5 16.5 16.5C14.2175 16.5 12.375 14.6575 12.375 12.375C12.375 10.0925 14.2175 8.25 16.5 8.25C18.7825 8.25 20.625 10.0925 20.625 12.375ZM16.5 19.1125C13.75 19.1125 8.25 20.625 8.25 23.375V24.75H24.75V23.375C24.75 20.625 19.25 19.1125 16.5 19.1125Z" fill="#202020" fill-opacity="0.54"/>
</svg>
